<svg width="148" height="41" viewBox="0 0 148 41" fill="none" xmlns="http://www.w3.org/2000/svg">
<path d="M44.276 19.094H56.108V22.732H44.276V19.094ZM44.616 29.294H58.046V33H40.196V9.2H57.57V12.906H44.616V29.294ZM60.0833 33L68.0733 22.596L68.0053 24.874L60.3893 14.844H65.1153L70.4533 21.984H68.6513L74.0233 14.844H78.6133L70.9293 24.874L70.9633 22.596L78.9193 33H74.1253L68.5153 25.418L70.2833 25.656L64.7753 33H60.0833ZM89.8416 33.34C87.9829 33.34 86.2036 33.0793 84.5036 32.558C82.8036 32.014 81.4549 31.3227 80.4576 30.484L81.9876 27.05C82.9396 27.798 84.1182 28.4213 85.5236 28.92C86.9289 29.4187 88.3682 29.668 89.8416 29.668C91.0882 29.668 92.0969 29.532 92.8676 29.26C93.6382 28.988 94.2049 28.6253 94.5676 28.172C94.9302 27.696 95.1116 27.1633 95.1116 26.574C95.1116 25.8487 94.8509 25.2707 94.3296 24.84C93.8082 24.3867 93.1282 24.0353 92.2896 23.786C91.4736 23.514 90.5556 23.2647 89.5356 23.038C88.5382 22.8113 87.5296 22.5507 86.5096 22.256C85.5122 21.9387 84.5942 21.542 83.7556 21.066C82.9396 20.5673 82.2709 19.91 81.7496 19.094C81.2282 18.278 80.9676 17.2353 80.9676 15.966C80.9676 14.674 81.3076 13.4953 81.9876 12.43C82.6902 11.342 83.7442 10.4807 85.1496 9.846C86.5776 9.18867 88.3796 8.86 90.5556 8.86C91.9836 8.86 93.4002 9.04133 94.8056 9.404C96.2109 9.76667 97.4349 10.288 98.4776 10.968L97.0836 14.402C96.0182 13.7673 94.9189 13.3027 93.7856 13.008C92.6522 12.6907 91.5642 12.532 90.5216 12.532C89.2976 12.532 88.3002 12.6793 87.5296 12.974C86.7816 13.2687 86.2262 13.654 85.8636 14.13C85.5236 14.606 85.3536 15.15 85.3536 15.762C85.3536 16.4873 85.6029 17.0767 86.1016 17.53C86.6229 17.9607 87.2916 18.3007 88.1076 18.55C88.9462 18.7993 89.8756 19.0487 90.8956 19.298C91.9156 19.5247 92.9242 19.7853 93.9216 20.08C94.9416 20.3747 95.8596 20.76 96.6756 21.236C97.5142 21.712 98.1829 22.358 98.6816 23.174C99.2029 23.99 99.4636 25.0213 99.4636 26.268C99.4636 27.5373 99.1122 28.716 98.4096 29.804C97.7296 30.8693 96.6756 31.7307 95.2476 32.388C93.8196 33.0227 92.0176 33.34 89.8416 33.34ZM111.122 33.238C109.581 33.238 108.221 32.9547 107.042 32.388C105.864 31.7987 104.946 30.9147 104.288 29.736C103.631 28.5347 103.302 27.0273 103.302 25.214V14.844H107.552V24.636C107.552 26.268 107.915 27.492 108.64 28.308C109.388 29.1013 110.442 29.498 111.802 29.498C112.8 29.498 113.661 29.294 114.386 28.886C115.134 28.478 115.712 27.866 116.12 27.05C116.551 26.234 116.766 25.2253 116.766 24.024V14.844H121.016V33H116.97V28.104L117.684 29.6C117.072 30.7787 116.177 31.6853 114.998 32.32C113.82 32.932 112.528 33.238 111.122 33.238ZM136.883 14.64C138.334 14.64 139.626 14.9233 140.759 15.49C141.915 16.0567 142.822 16.9293 143.479 18.108C144.136 19.264 144.465 20.76 144.465 22.596V33H140.215V23.14C140.215 21.5307 139.83 20.3293 139.059 19.536C138.311 18.7427 137.257 18.346 135.897 18.346C134.9 18.346 134.016 18.55 133.245 18.958C132.474 19.366 131.874 19.978 131.443 20.794C131.035 21.5873 130.831 22.596 130.831 23.82V33H126.581V14.844H130.627V19.74L129.913 18.244C130.548 17.088 131.466 16.204 132.667 15.592C133.891 14.9573 135.296 14.64 136.883 14.64Z" fill="white"/>
<path d="M17.1843 9.99294C17.6955 10.7114 18.1038 11.4978 18.3975 12.3294C18.7642 12.378 19.1255 12.4454 19.476 12.529L19.6513 12.5722H19.6971L19.9209 12.6343L20.1366 12.699L20.3226 12.7584L20.5141 12.8231C20.5734 12.8429 20.6327 12.8645 20.692 12.8879L20.8673 12.9526C21.2077 13.0846 21.5407 13.235 21.8648 13.4032C21.943 13.4437 22.0212 13.4814 22.0967 13.5246C22.2261 13.5947 22.3529 13.6676 22.4769 13.7431L22.6386 13.8403C22.6628 13.8571 22.6881 13.8724 22.7142 13.8861L22.8813 13.9967L23.0404 14.1047C23.66 14.5286 24.233 15.0169 24.7498 15.5616C24.8118 15.6209 24.8711 15.6857 24.9277 15.7477L25.0679 15.9069C25.1434 15.9932 25.2162 16.0796 25.289 16.1767C25.3618 16.2738 25.3753 16.2819 25.4157 16.3359L25.5829 16.5544C25.6368 16.6219 25.688 16.692 25.7366 16.7622C25.7851 16.8323 25.8363 16.9051 25.8849 16.9753C25.9819 17.1183 26.0736 17.264 26.1545 17.4097C26.2003 17.4852 26.2462 17.5581 26.2866 17.6336C26.327 17.7091 26.3729 17.7847 26.4133 17.8602C26.5023 18.0248 26.5886 18.1921 26.6829 18.3594C26.7153 18.4268 26.7449 18.4943 26.7746 18.5617C26.8043 18.6292 26.8339 18.6939 26.8636 18.7614C26.8932 18.8288 26.9148 18.8801 26.9391 18.9421C26.9633 19.0042 26.9849 19.0527 27.0065 19.1094C27.0604 19.2497 27.1116 19.3792 27.1602 19.5357C27.1889 19.6202 27.2159 19.7038 27.241 19.7866C27.2653 19.8675 27.2896 19.9485 27.3111 20.0294C27.3785 20.2614 27.4379 20.4961 27.4864 20.7336C27.4864 20.7929 27.5107 20.855 27.5241 20.9143C27.5376 20.9737 27.5376 20.9845 27.543 21.0169C27.5484 21.0492 27.5619 21.1113 27.5673 21.1572C27.5727 21.203 27.5889 21.2894 27.5996 21.3541C27.6104 21.4189 27.6212 21.489 27.6293 21.5565C27.6374 21.6239 27.6293 21.6158 27.6293 21.6455L27.6455 21.7966C27.6455 21.8424 27.6455 21.891 27.6455 21.9396C27.6455 21.9881 27.6617 22.0853 27.667 22.1581L27.6832 22.4279C27.6832 22.5196 27.6832 22.6114 27.6832 22.6977C27.6832 22.784 27.6832 22.8812 27.6832 22.9675C27.6797 25.8167 26.5472 28.5482 24.5341 30.5631C22.521 32.578 19.7916 33.7119 16.9443 33.7162H16.6747C16.583 33.7162 16.4913 33.7162 16.4051 33.7162C16.3188 33.7162 16.2244 33.7162 16.1354 33.7L15.8847 33.6757L15.669 33.6542L15.5342 33.6353L15.3455 33.6083H15.3293L15.1379 33.5786L14.9788 33.5489L14.7469 33.5031C14.3297 33.4149 13.9182 33.3013 13.5148 33.1631L13.2802 33.0795C13.202 33.0525 13.1265 33.0255 13.051 32.9932L12.7437 32.8664L12.5522 32.7827L12.3446 32.6856C12.2583 32.6424 12.1694 32.602 12.075 32.5561C11.9806 32.5102 11.9321 32.4832 11.862 32.4428L11.6193 32.3079C11.5438 32.2647 11.4684 32.2215 11.3956 32.1757C11.2581 32.092 11.1259 32.0084 10.9938 31.9194L10.9642 31.8978L10.7539 31.7494C10.6838 31.7008 10.6137 31.6523 10.5436 31.5983L10.3386 31.4418L10.1742 31.3096C10.0879 31.2395 10.0016 31.1666 9.90456 31.0911L9.7347 30.9427C9.66999 30.886 9.60798 30.8294 9.54597 30.7673C9.48396 30.7053 9.42195 30.6486 9.36263 30.5866C9.2422 30.4715 9.12627 30.35 9.01483 30.2223C8.95551 30.1576 8.8935 30.0901 8.83419 30.02C8.72364 29.8932 8.6131 29.7502 8.51064 29.6288L8.3219 29.3806L8.21405 29.2322L8.179 29.1836C8.13316 29.1216 8.09003 29.0595 8.04959 28.9948C8.00914 28.93 7.9687 28.8734 7.92826 28.8113C7.88781 28.7492 7.81502 28.6359 7.76109 28.5415C7.67482 28.3994 7.59124 28.2537 7.51035 28.1044C7.35667 27.8211 7.21376 27.5271 7.08435 27.2276C7.05469 27.1574 7.02503 27.0873 6.99807 27.0171C6.9765 26.9659 6.95493 26.9119 6.93606 26.8607C6.91719 26.8094 6.89831 26.7635 6.88213 26.715L6.87136 26.5612L6.79585 26.3427C6.77429 26.2671 6.75002 26.1943 6.72845 26.1187C6.72731 26.1107 6.72731 26.1025 6.72845 26.0944C6.70688 26.0243 6.68532 25.9488 6.66644 25.8759C6.64757 25.8031 6.62061 25.7221 6.60174 25.6412C6.54242 25.4038 6.48849 25.1663 6.44535 24.9235L6.40492 24.6807C6.39144 24.5998 6.38065 24.5161 6.36987 24.4352C5.53664 24.1442 4.74804 23.7382 4.02688 23.2292C4.07111 25.7815 4.8655 28.2642 6.31091 30.3676C7.75632 32.471 9.78875 34.1018 12.1546 35.0566C14.5204 36.0114 17.1148 36.2479 19.6141 35.7366C22.1133 35.2252 24.4068 33.9887 26.2082 32.1813C28.0096 30.3739 29.2393 28.0756 29.7436 25.5734C30.248 23.0711 30.0048 20.4756 29.0443 18.1107C28.0838 15.7459 26.4487 13.7165 24.3429 12.2757C22.237 10.8349 19.7539 10.0466 17.2031 10.0091L17.1843 9.99294ZM6.30246 21.9746L6.32672 21.7372L6.35907 21.4998C6.35907 21.4216 6.38064 21.3433 6.39413 21.2651C6.40761 21.1868 6.42109 21.1086 6.43457 21.0303C6.49027 20.7221 6.56136 20.4169 6.64757 20.1157C6.66644 20.0402 6.68801 19.9646 6.71227 19.8918C6.72845 19.8351 6.74733 19.7785 6.7662 19.7191C6.78507 19.6598 6.76621 19.6679 6.78777 19.6436L6.85518 19.4493C6.87303 19.3926 6.89372 19.3367 6.91719 19.2821C6.91719 19.2443 6.94145 19.2119 6.95494 19.1741C7.00347 19.05 7.05469 18.9259 7.10592 18.8045C7.15715 18.6831 7.22995 18.5158 7.29736 18.3755L7.39712 18.1759C7.41653 18.1326 7.43812 18.0902 7.46182 18.0491L7.54 17.9007C7.54793 17.8831 7.55694 17.866 7.56698 17.8494C7.60472 17.782 7.63977 17.7172 7.68021 17.6498C7.72065 17.5823 7.74762 17.5311 7.78267 17.4744L7.87703 17.3206C7.90399 17.2748 7.93365 17.2289 7.96331 17.183C8.08733 16.9915 8.21675 16.8026 8.35426 16.6192C8.3974 16.5571 8.44323 16.4978 8.49177 16.4384C8.5403 16.379 8.56186 16.344 8.5996 16.3008C8.70745 16.1659 8.81801 16.031 8.93395 15.9015C8.97978 15.8475 9.0283 15.7936 9.07683 15.7423C9.17929 15.629 9.28174 15.5184 9.39228 15.4132C9.43542 15.3673 9.47858 15.3241 9.52441 15.281C9.57025 15.2378 9.6619 15.1488 9.732 15.084L9.88839 14.9437C9.98006 14.8601 10.0771 14.7791 10.1742 14.6982L10.3225 14.5795C10.5409 14.4068 10.7619 14.2422 10.9938 14.0885L11.1907 13.9563L11.3497 13.8564L11.471 13.7809C11.5304 13.7458 11.5897 13.7081 11.6517 13.6757C11.7137 13.6433 11.8027 13.5893 11.8782 13.5489C11.9537 13.5084 12.0319 13.4652 12.1073 13.4275C12.1828 13.3897 12.261 13.3465 12.3392 13.3114H12.3527C12.4902 13.2467 12.6223 13.1819 12.7733 13.1226C12.9243 13.0632 12.9836 13.0336 13.0915 12.9931C13.1993 12.9526 13.2317 12.9364 13.3045 12.9121L13.4932 12.8447L13.5902 12.8096L13.8033 12.7422L14.054 12.6666L14.3236 12.5965L14.5501 12.5398L14.7226 12.5021L14.8008 12.4859L14.9303 12.4589L15.1621 12.4157L15.3266 12.3887L15.5018 12.3645C15.6501 12.3429 15.8038 12.324 15.9548 12.3105C15.5787 11.5425 15.0682 10.8481 14.4476 10.26C11.9313 10.7677 9.62142 12.0093 7.80918 13.8285C5.99694 15.6477 4.76344 17.963 4.26415 20.4827C4.85105 21.0956 5.54097 21.6006 6.30246 21.9746Z" fill="white"/>
<path d="M18.7696 13.7324C18.1842 13.6183 17.5891 13.5614 16.9928 13.5624C16.804 13.5624 16.6153 13.5624 16.4293 13.5786C16.5981 14.1939 16.6834 14.8292 16.6827 15.4672C16.6832 16.5757 16.4285 17.6694 15.9386 18.6635C15.4486 19.6577 14.7365 20.5256 13.8573 21.2C12.9782 21.8744 11.9557 22.3372 10.869 22.5525C9.78238 22.7678 8.66078 22.7298 7.59116 22.4415C7.58037 22.6213 7.57498 22.8012 7.57498 22.9811C7.57427 23.5879 7.63298 24.1933 7.75024 24.7887C9.26143 25.0673 10.8177 24.9736 12.2846 24.5157C13.7515 24.0578 15.0849 23.2494 16.1697 22.1604C17.2546 21.0714 18.0582 19.7345 18.5111 18.2652C18.9641 16.7959 19.0528 15.2383 18.7696 13.727V13.7324ZM9.46501 6.00003C7.60043 6.00081 5.77758 6.55244 4.22504 7.58574C2.6725 8.61903 1.45938 10.088 0.737803 11.8084C0.0162223 13.5289 -0.181695 15.4242 0.168863 17.2567C0.51942 19.0893 1.40284 20.7775 2.70837 22.1096C2.76996 21.0873 2.93987 20.0743 3.21525 19.0879C2.41651 17.7111 2.09474 16.1087 2.29999 14.53C2.50524 12.9513 3.226 11.4847 4.35021 10.3583C5.47441 9.23177 6.93905 8.50853 8.51643 8.30098C10.0938 8.09344 11.6955 8.41323 13.0725 9.21062C14.0568 8.93109 15.0683 8.75833 16.0895 8.6953C14.3202 6.962 11.941 5.994 9.46501 6.00003Z" fill="white"/>
</svg>
