<svg width="15" height="15" viewBox="0 0 15 15" fill="none" xmlns="http://www.w3.org/2000/svg">
<g clip-path="url(#clip0_618_45651)">
<path d="M3.34125 12.3077L0 15V0.769231C0 0.565218 0.0790176 0.369561 0.21967 0.225302C0.360322 0.0810437 0.551088 0 0.75 0H14.25C14.4489 0 14.6397 0.0810437 14.7803 0.225302C14.921 0.369561 15 0.565218 15 0.769231V11.5385C15 11.7425 14.921 11.9381 14.7803 12.0824C14.6397 12.2266 14.4489 12.3077 14.25 12.3077H3.34125ZM8.56125 6.15385L10.4167 4.25L9.35625 3.16231L7.5 5.06615L5.64375 3.16154L4.58325 4.25L6.4395 6.15385L4.5825 8.05769L5.643 9.14538L7.5 7.24154L9.35625 9.14538L10.4167 8.05769L8.5605 6.15385H8.56125Z" fill="#3C3B65"/>
</g>
<defs>
<clipPath id="clip0_618_45651">
<rect width="15" height="15" fill="white"/>
</clipPath>
</defs>
</svg>
