<svg width="87" height="14" viewBox="0 0 87 14" fill="none" xmlns="http://www.w3.org/2000/svg">
<path d="M7.50004 11.4537L2.86475 14L3.90001 8.8869L0 5.34753L5.27509 4.73373L7.50004 0L9.72493 4.73373L15 5.34753L11.1001 8.8869L12.1353 14L7.50004 11.4537Z" fill="#FFC90A"/>
<path d="M25.5 11.4537L20.8648 14L21.9 8.8869L18 5.34753L23.2751 4.73373L25.5 0L27.7249 4.73373L33 5.34753L29.1001 8.8869L30.1353 14L25.5 11.4537Z" fill="#FFC90A"/>
<path d="M43.5 11.4537L38.8648 14L39.9 8.8869L36 5.34753L41.2751 4.73373L43.5 0L45.7249 4.73373L51 5.34753L47.1001 8.8869L48.1353 14L43.5 11.4537Z" fill="#FFC90A"/>
<path d="M61.5 11.4537L56.8648 14L57.9 8.8869L54 5.34753L59.2751 4.73373L61.5 0L63.7249 4.73373L69 5.34753L65.1001 8.8869L66.1353 14L61.5 11.4537Z" fill="#FFC90A"/>
<path d="M79.5 11.4537L74.8648 14L75.9 8.8869L72 5.34753L77.2751 4.73373L79.5 0L81.7249 4.73373L87 5.34753L83.1001 8.8869L84.1353 14L79.5 11.4537Z" fill="#FFC90A"/>
</svg>
